<svg width="100" height="100" viewBox="0 0 100 100" fill="none" xmlns="http://www.w3.org/2000/svg">
<path d="M83.0938 27.9347H43.7759L35.9957 17H7.57005C6.08248 17 4.875 18.2106 4.875 19.7055V81.0146C4.98237 81.0177 5.08973 81.024 5.19399 81.0302L20.7777 43.7993C21.064 42.7324 22.0272 41.9935 23.1273 41.9935H85.7888V30.6402C85.7888 29.1453 84.5813 27.9347 83.0938 27.9347Z" fill="url(#paint0_linear_43_236)"/>
<path d="M76.9568 83H7.31042C5.7077 83 4.54224 81.3165 4.96081 79.6037L20.7794 39.1149C21.0657 37.9409 22.0289 37.125 23.129 37.125H92.7754C94.3781 37.125 95.125 38.8188 95.125 40.5213L79.3064 81.0101C79.0201 82.1841 78.0569 83 76.9568 83Z" fill="url(#paint1_linear_43_236)"/>
<defs>
<linearGradient id="paint0_linear_43_236" x1="45.3319" y1="17" x2="45.3319" y2="81.0302" gradientUnits="userSpaceOnUse">
<stop stop-color="#EBBA16"/>
<stop offset="1" stop-color="#AD6800"/>
</linearGradient>
<linearGradient id="paint1_linear_43_236" x1="50" y1="37.125" x2="50" y2="83" gradientUnits="userSpaceOnUse">
<stop stop-color="#EFCE4A"/>
<stop offset="1" stop-color="#A67919"/>
</linearGradient>
</defs>
</svg>
