<svg width="726" height="218" viewBox="0 0 726 218" fill="none" xmlns="http://www.w3.org/2000/svg">
<path d="M700.714 4.7998H725.194L701.002 45.5998V71.9998H679.402V45.7918L655.114 4.7998H679.594L690.154 26.4958L700.714 4.7998Z" fill="white"/>
<path d="M607.31 63.36V48.192H642.83V63.36H607.31ZM624.878 35.328L616.622 53.856L618.253 58.656L610.958 72H586.958L624.878 0L662.797 72H638.797L631.693 59.328L633.133 53.856L624.878 35.328Z" fill="white"/>
<path d="M536.032 4.7998H557.152V54.2398H584.512V71.9998H536.032V4.7998Z" fill="white"/>
<path d="M471.908 4.7998H493.028V71.9998H471.908V4.7998ZM485.54 21.5998V4.7998H498.308C504.9 4.7998 510.244 5.72781 514.34 7.58381C518.5 9.43981 521.54 12.0958 523.46 15.5518C525.444 18.9438 526.436 23.0398 526.436 27.8398C526.436 32.5758 525.444 36.6718 523.46 40.1278C521.54 43.5838 518.5 46.2398 514.34 48.0958C510.244 49.9518 504.9 50.8798 498.308 50.8798H485.54V34.0798H498.308C500.932 34.0798 502.916 33.5358 504.26 32.4478C505.604 31.3598 506.276 29.8238 506.276 27.8398C506.276 25.8558 505.604 24.3198 504.26 23.2318C502.916 22.1438 500.932 21.5998 498.308 21.5998H485.54Z" fill="white"/>
<path d="M417.775 46.4639C419.055 48.7039 420.527 50.6559 422.191 52.3199C423.855 53.9199 425.647 55.1359 427.567 55.9679C429.551 56.7999 431.535 57.2159 433.519 57.2159C435.183 57.2159 436.591 56.8959 437.743 56.2559C438.895 55.5519 439.471 54.4639 439.471 52.9919C439.471 52.0959 439.151 51.3279 438.511 50.6879C437.935 50.0479 436.751 49.3119 434.959 48.4799C433.167 47.6479 430.447 46.5279 426.799 45.1199C425.199 44.4799 423.343 43.6159 421.231 42.5279C419.183 41.4399 417.199 40.0319 415.279 38.3039C413.423 36.5759 411.855 34.4639 410.575 31.9679C409.359 29.4719 408.751 26.5279 408.751 23.1359C408.751 18.7199 409.935 15.0079 412.303 11.9999C414.671 8.99188 417.807 6.71988 421.711 5.18388C425.615 3.64788 429.903 2.87988 434.575 2.87988C439.631 2.87988 443.951 3.64788 447.535 5.18388C451.183 6.71988 454.159 8.63988 456.463 10.9439C458.831 13.2479 460.623 15.5519 461.839 17.8559L446.191 26.4959C445.167 24.8959 444.015 23.6479 442.735 22.7519C441.519 21.7919 440.271 21.0879 438.991 20.6399C437.711 20.1919 436.463 19.9679 435.247 19.9679C433.775 19.9679 432.559 20.2239 431.599 20.7359C430.703 21.2479 430.255 22.0479 430.255 23.1359C430.255 24.4799 430.895 25.5999 432.175 26.4959C433.519 27.3279 435.279 28.1279 437.455 28.8959C439.631 29.5999 442.031 30.4319 444.655 31.3919C447.343 32.3519 449.743 33.5039 451.855 34.8479C453.967 36.1279 455.759 37.6319 457.231 39.3599C458.767 41.0879 459.919 43.0399 460.687 45.2159C461.455 47.3279 461.839 49.6959 461.839 52.3199C461.839 56.0319 461.071 59.3279 459.535 62.2079C457.999 65.0239 455.919 67.3599 453.295 69.2159C450.735 71.0719 447.823 72.4799 444.559 73.4399C441.295 74.3999 437.935 74.8799 434.479 74.8799C429.679 74.8799 425.199 74.0799 421.039 72.4799C416.943 70.9439 413.391 68.7999 410.383 66.0479C407.375 63.2959 405.103 60.2239 403.567 56.8319L417.775 46.4639Z" fill="white"/>
<path d="M372.345 4.7998H393.945V71.9998H372.345V4.7998Z" fill="white"/>
<path d="M298.939 4.7998H320.923V71.9998H298.939V4.7998ZM325.339 71.9998H313.531V53.7598H324.379C326.235 53.7598 328.123 53.5998 330.043 53.2798C331.963 52.9598 333.723 52.2878 335.323 51.2638C336.923 50.2398 338.203 48.7038 339.163 46.6558C340.187 44.6078 340.699 41.8558 340.699 38.3998C340.699 34.9438 340.187 32.1918 339.163 30.1438C338.203 28.0958 336.923 26.5598 335.323 25.5358C333.723 24.5118 331.963 23.8398 330.043 23.5198C328.123 23.1998 326.235 23.0398 324.379 23.0398H313.531V4.7998H325.339C333.147 4.7998 339.835 6.1438 345.403 8.8318C351.035 11.5198 355.323 15.3598 358.267 20.3518C361.275 25.3438 362.779 31.3598 362.779 38.3998C362.779 45.3758 361.275 51.3918 358.267 56.4478C355.323 61.4398 351.035 65.2798 345.403 67.9678C339.835 70.6558 333.147 71.9998 325.339 71.9998Z" fill="white"/>
<path d="M239.464 4.7998H263.944L239.752 45.5998V71.9998H218.152V45.7918L193.864 4.7998H218.344L228.904 26.4958L239.464 4.7998Z" fill="white"/>
<path d="M146.932 46.4639C148.212 48.7039 149.684 50.6559 151.348 52.3199C153.012 53.9199 154.804 55.1359 156.724 55.9679C158.708 56.7999 160.692 57.2159 162.676 57.2159C164.34 57.2159 165.748 56.8959 166.9 56.2559C168.052 55.5519 168.628 54.4639 168.628 52.9919C168.628 52.0959 168.308 51.3279 167.668 50.6879C167.092 50.0479 165.908 49.3119 164.116 48.4799C162.324 47.6479 159.604 46.5279 155.956 45.1199C154.356 44.4799 152.5 43.6159 150.388 42.5279C148.34 41.4399 146.356 40.0319 144.436 38.3039C142.58 36.5759 141.012 34.4639 139.732 31.9679C138.516 29.4719 137.908 26.5279 137.908 23.1359C137.908 18.7199 139.092 15.0079 141.46 11.9999C143.828 8.99188 146.964 6.71988 150.868 5.18388C154.772 3.64788 159.06 2.87988 163.732 2.87988C168.788 2.87988 173.108 3.64788 176.692 5.18388C180.34 6.71988 183.316 8.63988 185.62 10.9439C187.988 13.2479 189.78 15.5519 190.996 17.8559L175.348 26.4959C174.324 24.8959 173.172 23.6479 171.892 22.7519C170.676 21.7919 169.428 21.0879 168.148 20.6399C166.868 20.1919 165.62 19.9679 164.404 19.9679C162.932 19.9679 161.716 20.2239 160.756 20.7359C159.86 21.2479 159.412 22.0479 159.412 23.1359C159.412 24.4799 160.052 25.5999 161.332 26.4959C162.676 27.3279 164.436 28.1279 166.612 28.8959C168.788 29.5999 171.188 30.4319 173.812 31.3919C176.5 32.3519 178.9 33.5039 181.012 34.8479C183.124 36.1279 184.916 37.6319 186.388 39.3599C187.924 41.0879 189.076 43.0399 189.844 45.2159C190.612 47.3279 190.996 49.6959 190.996 52.3199C190.996 56.0319 190.228 59.3279 188.692 62.2079C187.156 65.0239 185.076 67.3599 182.452 69.2159C179.892 71.0719 176.98 72.4799 173.716 73.4399C170.452 74.3999 167.092 74.8799 163.636 74.8799C158.836 74.8799 154.356 74.0799 150.196 72.4799C146.1 70.9439 142.548 68.7999 139.54 66.0479C136.532 63.2959 134.26 60.2239 132.724 56.8319L146.932 46.4639Z" fill="white"/>
<path d="M74.8095 63.36V48.192H110.33V63.36H74.8095ZM92.3775 35.328L84.1215 53.856L85.7535 58.656L78.4575 72H54.4575L92.3775 0L130.298 72H106.298L99.1935 59.328L100.634 53.856L92.3775 35.328Z" fill="white"/>
<path d="M15.3122 71.9998V55.1998H49.2002V71.9998H15.3122ZM15.3122 21.5998V4.7998H49.2002V21.5998H15.3122ZM15.3122 45.5998V29.2798H47.2802V45.5998H15.3122ZM0.720215 4.7998H20.8802V71.9998H0.720215V4.7998Z" fill="white"/>
<path opacity="0.19" d="M441.812 166.52V147.8H501.332V166.52H482.133V215H461.012V166.52H441.812Z" fill="white"/>
<path opacity="0.19" d="M394.4 189.464C395.68 191.704 397.152 193.656 398.816 195.32C400.48 196.92 402.272 198.136 404.192 198.968C406.176 199.8 408.16 200.216 410.144 200.216C411.808 200.216 413.216 199.896 414.368 199.256C415.52 198.552 416.096 197.464 416.096 195.992C416.096 195.096 415.776 194.328 415.136 193.688C414.56 193.048 413.376 192.312 411.584 191.48C409.792 190.648 407.072 189.528 403.424 188.12C401.824 187.48 399.968 186.616 397.856 185.528C395.808 184.44 393.824 183.032 391.904 181.304C390.048 179.576 388.48 177.464 387.2 174.968C385.984 172.472 385.376 169.528 385.376 166.136C385.376 161.72 386.56 158.008 388.928 155C391.296 151.992 394.432 149.72 398.336 148.184C402.24 146.648 406.528 145.88 411.2 145.88C416.256 145.88 420.576 146.648 424.16 148.184C427.808 149.72 430.784 151.64 433.088 153.944C435.456 156.248 437.248 158.552 438.464 160.856L422.816 169.496C421.792 167.896 420.64 166.648 419.36 165.752C418.144 164.792 416.896 164.088 415.616 163.64C414.336 163.192 413.088 162.968 411.872 162.968C410.4 162.968 409.184 163.224 408.224 163.736C407.328 164.248 406.88 165.048 406.88 166.136C406.88 167.48 407.52 168.6 408.8 169.496C410.144 170.328 411.904 171.128 414.08 171.896C416.256 172.6 418.656 173.432 421.28 174.392C423.968 175.352 426.368 176.504 428.48 177.848C430.592 179.128 432.384 180.632 433.856 182.36C435.392 184.088 436.544 186.04 437.312 188.216C438.08 190.328 438.464 192.696 438.464 195.32C438.464 199.032 437.696 202.328 436.16 205.208C434.624 208.024 432.544 210.36 429.92 212.216C427.36 214.072 424.448 215.48 421.184 216.44C417.92 217.4 414.56 217.88 411.104 217.88C406.304 217.88 401.824 217.08 397.664 215.48C393.568 213.944 390.016 211.8 387.008 209.048C384 206.296 381.728 203.224 380.192 199.832L394.4 189.464Z" fill="white"/>
<path opacity="0.19" d="M321.935 181.4C321.935 184.664 322.543 187.544 323.759 190.04C324.975 192.536 326.703 194.488 328.943 195.896C331.183 197.24 333.871 197.912 337.007 197.912C340.143 197.912 342.831 197.24 345.071 195.896C347.311 194.488 349.039 192.536 350.255 190.04C351.471 187.544 352.079 184.664 352.079 181.4C352.079 178.072 351.503 175.192 350.351 172.76C349.199 170.264 347.503 168.344 345.263 167C343.087 165.592 340.335 164.888 337.007 164.888C333.871 164.888 331.183 165.592 328.943 167C326.703 168.344 324.975 170.264 323.759 172.76C322.543 175.192 321.935 178.072 321.935 181.4ZM299.567 181.4C299.567 176.024 300.527 171.16 302.447 166.808C304.367 162.456 307.023 158.712 310.415 155.576C313.807 152.44 317.775 150.04 322.319 148.376C326.863 146.712 331.759 145.88 337.007 145.88C342.383 145.88 347.343 146.712 351.887 148.376C356.431 150.04 360.399 152.44 363.791 155.576C367.183 158.712 369.807 162.456 371.663 166.808C373.519 171.16 374.447 176.024 374.447 181.4C374.447 186.776 373.519 191.704 371.663 196.184C369.871 200.6 367.311 204.44 363.983 207.704C360.655 210.968 356.687 213.464 352.079 215.192C347.535 216.984 342.511 217.88 337.007 217.88C331.503 217.88 326.447 216.984 321.839 215.192C317.295 213.464 313.359 210.968 310.031 207.704C306.703 204.44 304.111 200.6 302.255 196.184C300.463 191.704 299.567 186.776 299.567 181.4Z" fill="white"/>
<path opacity="0.19" d="M228.232 189.56V170.84H281.992V189.56H228.232ZM268.84 147.8H289.96V215H268.84V147.8ZM223.72 147.8H244.84V215H223.72V147.8Z" fill="white"/>
</svg>
