<svg width="22" height="22" viewBox="0 0 22 22" fill="none" xmlns="http://www.w3.org/2000/svg">
<path d="M20.2929 0.292893C20.6834 -0.0976311 21.3164 -0.0976311 21.707 0.292893C22.0975 0.683418 22.0975 1.31643 21.707 1.70696L18.707 4.70696C18.3164 5.09748 17.6834 5.09748 17.2929 4.70696C16.9024 4.31643 16.9024 3.68342 17.2929 3.29289L20.2929 0.292893Z" fill="white"/>
<path d="M3.29289 17.2929C3.68342 16.9024 4.31643 16.9024 4.70696 17.2929C5.09748 17.6834 5.09748 18.3164 4.70696 18.707L1.70696 21.707C1.31643 22.0975 0.683418 22.0975 0.292893 21.707C-0.0976311 21.3164 -0.0976311 20.6834 0.292893 20.2929L3.29289 17.2929Z" fill="white"/>
<path d="M5 10C5.26521 10 5.5195 10.1054 5.70703 10.293L11.707 16.293C11.8946 16.4805 12 16.7348 12 17C12 17.2652 11.8946 17.5195 11.707 17.707L9.40723 20.0068C9.09157 20.3233 8.71653 20.5747 8.30371 20.7461C7.89049 20.9176 7.44742 21.0059 7 21.0059C6.55258 21.0059 6.10952 20.9177 5.69629 20.7461C5.28345 20.5747 4.90843 20.3233 4.59277 20.0068L1.99316 17.4072L1.99414 17.4062C1.67766 17.0906 1.42532 16.7165 1.25391 16.3037C1.10385 15.9423 1.01734 15.558 0.998047 15.168L0.994141 15C0.994141 14.5526 1.08235 14.1095 1.25391 13.6963C1.4255 13.283 1.6772 12.9077 1.99414 12.5918L4.29297 10.293L4.36621 10.2266C4.54416 10.0807 4.76791 10 5 10ZM3.00098 15.1377C3.01452 15.2747 3.04857 15.4095 3.10156 15.5371C3.15457 15.6647 3.226 15.7834 3.31348 15.8896L3.40625 15.9912L3.40723 15.9932L6.00684 18.5928L6.00879 18.5938C6.13875 18.7242 6.29288 18.8278 6.46289 18.8984C6.63305 18.9691 6.81575 19.0059 7 19.0059C7.18426 19.0059 7.36694 18.9691 7.53711 18.8984C7.70716 18.8278 7.8622 18.7242 7.99219 18.5938L9.58594 17L5 12.4141L3.40723 14.0068L3.40625 14.0088C3.27585 14.1388 3.17221 14.2929 3.10156 14.4629C3.0309 14.6331 2.99414 14.8157 2.99414 15L3.00098 15.1377Z" fill="white"/>
<path d="M8.29289 9.29289C8.68342 8.90237 9.31643 8.90237 9.70696 9.29289C10.0975 9.68342 10.0975 10.3164 9.70696 10.707L7.20696 13.207C6.81643 13.5975 6.18342 13.5975 5.79289 13.207C5.40237 12.8164 5.40237 12.1834 5.79289 11.7929L8.29289 9.29289Z" fill="white"/>
<path d="M11.2929 12.2929C11.6834 11.9024 12.3164 11.9024 12.707 12.2929C13.0975 12.6834 13.0975 13.3164 12.707 13.707L10.207 16.207C9.81643 16.5975 9.18342 16.5975 8.79289 16.207C8.40237 15.8164 8.40237 15.1834 8.79289 14.7929L11.2929 12.2929Z" fill="white"/>
<path d="M19.0059 7C19.0059 6.81575 18.9691 6.63305 18.8984 6.46289C18.8278 6.29288 18.7242 6.13875 18.5938 6.00879L18.5928 6.00684L15.9932 3.40723L15.9912 3.40625C15.8612 3.27585 15.7071 3.17221 15.5371 3.10156C15.3669 3.0309 15.1843 2.99414 15 2.99414C14.8157 2.99414 14.6331 3.0309 14.4629 3.10156C14.2929 3.17221 14.1388 3.27585 14.0088 3.40625L14.0068 3.40723L12.4141 5L17 9.58594L18.5928 7.99316L18.5938 7.99121C18.7242 7.86124 18.8278 7.70713 18.8984 7.53711C18.9691 7.36694 19.0059 7.18426 19.0059 7ZM21.0059 7C21.0059 7.44742 20.9176 7.89049 20.7461 8.30371C20.5747 8.71653 20.3223 9.0906 20.0059 9.40625L20.0068 9.40723L17.707 11.707C17.5195 11.8946 17.2652 12 17 12C16.7348 12 16.4805 11.8946 16.293 11.707L10.293 5.70703C10.1054 5.5195 10 5.26521 10 5C10 4.7348 10.1054 4.4805 10.293 4.29297L12.5928 1.99316C12.9084 1.67669 13.2835 1.42532 13.6963 1.25391C14.1095 1.08235 14.5526 0.994141 15 0.994141C15.4474 0.994141 15.8905 1.08235 16.3037 1.25391C16.7165 1.42532 17.0916 1.67669 17.4072 1.99316L20.0059 4.5918L20.1221 4.71289C20.3848 5.00194 20.596 5.33476 20.7461 5.69629C20.9177 6.10952 21.0059 6.55258 21.0059 7Z" fill="white"/>
</svg>
