<svg width="100" height="100" viewBox="0 0 100 100" fill="none" xmlns="http://www.w3.org/2000/svg">
<g filter="url(#filter0_d_43_211)">
<rect x="35" y="57" width="30" height="4" rx="2" fill="white"/>
<rect x="35" y="48" width="30" height="4" rx="2" fill="white"/>
<rect x="35" y="39" width="30" height="4" rx="2" fill="white"/>
</g>
<path d="M81.9999 16.4912V83.2899C81.9999 87.7569 78.3493 91.4077 73.8821 91.4077H25.2537C25.0063 91.4077 24.7587 91.3953 24.5237 91.3705C24.2762 91.3582 24.0411 91.3211 23.806 91.2716C23.6822 91.2593 23.5585 91.2345 23.4471 91.1973C22.7665 91.0488 22.1107 90.8013 21.5166 90.4796C21.5042 90.4796 21.5042 90.4673 21.5042 90.4673C21.4671 90.455 21.43 90.4425 21.4052 90.4178C21.17 90.2939 20.9472 90.1579 20.7369 90.0093C20.4771 89.8485 20.2295 89.6628 20.0069 89.4525C19.846 89.3286 19.6974 89.1802 19.5491 89.0317C19.2645 88.7594 19.0045 88.4502 18.7694 88.1283C18.6951 88.0294 18.6209 87.9179 18.5466 87.8189C18.3734 87.5714 18.2124 87.3116 18.0888 87.0517C17.9651 86.8412 17.866 86.6186 17.7794 86.3959C17.6803 86.1731 17.5937 85.938 17.5195 85.6905C17.4577 85.5296 17.4204 85.3811 17.3834 85.2079C17.3463 85.0719 17.3091 84.9233 17.2843 84.7748C17.2595 84.6509 17.2472 84.515 17.2225 84.3911C17.2225 84.3663 17.2102 84.3415 17.2102 84.317C17.1731 83.9828 17.1484 83.6363 17.1484 83.29V37.4664L46.2288 8.38574H73.8821C74.835 8.38574 75.7507 8.54644 76.5921 8.86817C78.8939 9.67265 80.713 11.5041 81.5173 13.7933C81.6782 14.1895 81.7896 14.5978 81.8638 15.0186C81.9133 15.2536 81.9381 15.5012 81.9629 15.7363C81.9876 15.9836 81.9999 16.2437 81.9999 16.4912Z" fill="url(#paint0_linear_43_211)"/>
<path d="M38.111 37.4646C42.5741 37.4646 46.2258 33.8129 46.2258 29.3497V8.38135L17.1426 37.4646H38.111Z" fill="white"/>
<defs>
<filter id="filter0_d_43_211" x="34" y="39" width="32" height="24" filterUnits="userSpaceOnUse" color-interpolation-filters="sRGB">
<feFlood flood-opacity="0" result="BackgroundImageFix"/>
<feColorMatrix in="SourceAlpha" type="matrix" values="0 0 0 0 0 0 0 0 0 0 0 0 0 0 0 0 0 0 127 0" result="hardAlpha"/>
<feOffset dy="1"/>
<feGaussianBlur stdDeviation="0.5"/>
<feComposite in2="hardAlpha" operator="out"/>
<feColorMatrix type="matrix" values="0 0 0 0 0 0 0 0 0 0 0 0 0 0 0 0 0 0 0.07 0"/>
<feBlend mode="normal" in2="BackgroundImageFix" result="effect1_dropShadow_43_211"/>
<feBlend mode="normal" in="SourceGraphic" in2="effect1_dropShadow_43_211" result="shape"/>
</filter>
<linearGradient id="paint0_linear_43_211" x1="52.1687" y1="8.38574" x2="52.1687" y2="91.4077" gradientUnits="userSpaceOnUse">
<stop stop-color="#D0D0D0"/>
<stop offset="1" stop-color="#929292"/>
</linearGradient>
</defs>
</svg>
